<?xml version="1.0" encoding="UTF-8"?><svg id="Layer_1" xmlns="http://www.w3.org/2000/svg" xmlns:xlink="http://www.w3.org/1999/xlink" viewBox="0 0 267 205"><defs><style>.cls-1{fill:#046837;}.cls-2{fill:#006837;}.cls-3{fill:#754c24;}.cls-4{fill:#fff;filter:url(#drop-shadow-1);opacity:.85;}</style><filter id="drop-shadow-1" filterUnits="userSpaceOnUse"><feOffset dx="0" dy="0"/><feGaussianBlur result="blur" stdDeviation="10"/><feFlood flood-color="#000" flood-opacity="1"/><feComposite in2="blur" operator="in"/><feComposite in="SourceGraphic"/></filter></defs><ellipse class="cls-4" cx="133.38" cy="102.54" rx="103.05" ry="71.62"/><g><path class="cls-2" d="M137.24,109.57c-4.39-2.33-8.94-4.42-13.14-7.07-4.83-3.06-8.74-7.15-10.97-12.6-.39-.96-.79-1.91-1.19-2.86-.14-1.01-.28-2.03-.41-3.04,.3-2.01,.35-4.09,.95-6.01,.76-2.45,.83-4.64-.82-6.71l.61-.08c2.34,1.51,4.68,2.91,7.4,3.78,6.92,2.22,13.48,5.26,18.96,10.21,4.11,3.71,6.8,8.12,6.44,13.93-.19,3.08-1.46,5.8-2.8,8.51-.22,.17-.43,.34-.65,.51-.11-2.67-1.84-4.49-3.46-6.29-5.36-5.94-11.69-10.75-18.01-15.57-.22-.16-.56-.17-.84-.24,.2,.7,.58,1.09,.94,1.49,5.43,5.94,10.89,11.85,16.26,17.84,.96,1.07,1.57,2.47,2.34,3.72-.54,.17-1.07,.33-1.61,.5Z"/><path class="cls-3" d="M137.24,109.57c.54-.17,1.07-.33,1.61-.5,.92-.32,1.84-.63,2.77-.95,.22-.17,.44-.34,.65-.51,1.18,1.38,2.65,2.6,3.48,4.17,2,3.77,3.75,7.69,5.51,11.58,.69,1.53,0,2.71-1.63,3.11-.64,.16-1.34,.43-1.94,.31-.56-.12-1.44-.68-1.46-1.09-.3-4.34-2.82-7.58-5.23-10.86-.96-1.31-2.09-2.5-3.09-3.79-.32-.41-.45-.97-.67-1.46Z"/></g><g><path class="cls-1" d="M82.73,74.72c1.22,1.82,1.44,3.77,.78,5.85-.6,1.91-1.76,3.53-3.51,4.99-2.28,1.89-4.79,2.37-7.75,1.4-2.26-.75-4.67-2.31-7.16-4.8-2.51-2.5-4.29-5.37-5.18-8.69-1.1-4.22-.09-7.74,2.87-10.16,.23-.19,.68-.42,1.35-.68,1.87-.7,4.01-.56,6.33,.42,2.2,.91,3.79,2.15,4.82,3.64,1.86,2.68,2.22,4.4,1.1,5.21-.64,.47-1.14,.46-1.51-.03-.06-.09-.14-.51-.23-1.28-.08-.77-.24-1.32-.47-1.64-1.12-1.53-2.54-2.8-4.31-3.78-2.31-1.27-4.28-1.27-5.81-.02-1.56,1.27-2.25,3.2-2,5.66,.2,1.94,.86,3.76,1.94,5.47,1.08,1.71,2.14,3.09,3.15,4.15,1.93,2.03,3.53,3.36,4.79,4,1.95,1.03,3.89,1.08,5.88,.23,.64-.26,1.12-.52,1.43-.78,.9-.74,1.57-1.65,2.03-2.77,.46-1.12,.62-2.25,.45-3.41-.14-1.08-.3-1.78-.51-2.09-.34-.48-.88-.46-1.62,.07-1.5,1.09-2.51,2.21-3.05,3.3-.53,1.09-.76,1.63-.72,1.59-.68,.56-1.47,.31-2.39-.76-.21-.24-.24-.56-.11-.96,.14-.39,.75-1.23,1.89-2.47,1.07-1.18,1.86-1.93,2.32-2.28,.89-.65,1.84-.93,2.83-.84,.99,.09,1.77,.59,2.35,1.45Z"/><path class="cls-1" d="M88.22,62.58c.05,.09,.14,.3,.28,.62-.08,.64-.26,1.04-.55,1.2-.2,.1-.43,.08-.7-.08-.87-1.44-1.93-1.83-3.15-1.13-.8,.46-.8,2.28,.11,5.42,.31,1.15,.98,2.54,1.98,4.18,1.28,2.09,2.12,3.34,2.52,3.76,.06,.06,.2,.16,.42,.33,.22,.17,.36,.31,.43,.42,.3,.5,.14,.94-.48,1.33-.7,.44-1.3,.27-1.81-.51-.07-.11-.15-.29-.24-.54-.08-.25-.16-.43-.23-.54-.79-1.24-2.03-3.06-3.73-5.45-1.7-2.39-2.96-4.2-3.75-5.44-.29-.45-.38-.78-.27-.99,.11-.21,.41-.47,.9-.78,.62-.39,1.1-.4,1.45-.05,.3,.44,.6,.87,.88,1.29,.08-1.3,.15-2.03,.18-2.21,.21-.9,.63-1.52,1.23-1.87,.46-.26,.99-.38,1.58-.38,.33,0,.88,.18,1.63,.53,.75,.36,1.19,.66,1.31,.89Z"/><path class="cls-1" d="M103.67,67.01c.4,1.11,.07,2.34-.91,3.72-.88,1.26-1.8,2.11-2.83,2.56-2.9,1.29-5.34,.04-7.43-4-.91-1.78-1.57-3.85-1.92-6.24-.44-3.12,.14-5.05,1.61-5.72,1.26-.57,2.92-.57,4.89,.04,1.97,.61,3.14,1.56,3.59,2.76,.57,1.55,.44,3.13-.31,4.74-.76,1.62-1.83,2.73-3.3,3.38-.14,.06-.49,.07-1.06,.04-.57-.03-.93,0-1.09,.07-.3,.14-.41,.31-.31,.51,1.34,2.76,2.84,3.73,4.52,2.98,.87-.38,1.53-1.04,2.02-1.99,.3-.56,.57-1.34,.83-2.35,.2-.79,.38-1.22,.53-1.27,.54-.2,.95,.05,1.2,.75Zm-5.13-5.93c-.34-.87-.92-1.58-1.74-2.13-.82-.54-1.67-.63-2.53-.27-1.04,.45-1.6,1.44-1.67,2.94-.06,1.26,.19,2.43,.71,3.51,.33,.7,.83,1.18,1.49,1.44,.66,.27,1.33,.25,2.01-.06,.97-.43,1.6-1.2,1.9-2.33,.28-1.04,.23-2.08-.18-3.12Z"/><path class="cls-1" d="M115.77,63.55c.24,1.15-.25,2.32-1.41,3.55-1.04,1.12-2.06,1.83-3.13,2.13-3.02,.86-5.24-.73-6.74-5.02-.65-1.89-1.02-4.04-1.04-6.45,0-3.14,.82-4.97,2.36-5.42,1.31-.38,2.94-.14,4.79,.74,1.85,.89,2.87,1.99,3.14,3.24,.35,1.62,0,3.16-.96,4.65-.96,1.49-2.17,2.44-3.7,2.87-.15,.04-.49,0-1.04-.11-.55-.11-.91-.14-1.08-.09-.32,.1-.44,.25-.38,.45,.94,2.92,2.28,4.09,4.03,3.59,.9-.26,1.65-.81,2.25-1.68,.37-.51,.75-1.24,1.13-2.21,.31-.76,.54-1.15,.69-1.18,.56-.12,.92,.18,1.08,.91Zm-4.23-6.59c-.22-.91-.69-1.69-1.42-2.35-.73-.66-1.55-.87-2.44-.62-1.08,.29-1.77,1.19-2.04,2.67-.23,1.24-.14,2.43,.21,3.58,.23,.74,.66,1.28,1.27,1.64,.61,.36,1.27,.43,1.98,.23,1.01-.29,1.73-.95,2.18-2.03,.42-.99,.51-2.02,.25-3.11Z"/><path class="cls-1" d="M129.29,65.92c-.12,.3-.29,.46-.54,.47-.24,.02-.65-.14-1.23-.47,0-.11-.02-.21-.03-.32-.02-.24-.05-.6-.09-1.08-.04-.48-.07-.82-.08-1.04-.68-8.82-2.18-13.16-4.5-12.9-.72,.08-1.43,.68-2.11,1.8-1.72,2.77-2.14,6.06-1.49,9.82,.08,.5,.28,1.22,.57,2.16,.29,.94,.48,1.66,.56,2.16,.06,.4-.14,.63-.61,.71-.89,.16-1.5-.58-1.81-2.23-.57-2.97-1.13-5.95-1.7-8.92-.04-.24-.1-.58-.15-1.03-.06-.45-.11-.79-.15-1.03-.06-.34-.21-.83-.43-1.47-.22-.64-.36-1.11-.42-1.43-.04-.21,.09-.49,.38-.83,.3-.34,.54-.53,.74-.56,.36-.06,.73,.06,1.1,.38,.2,1.72,.33,2.73,.38,3.02,.07,.39,.15,.77,.23,1.14,.23-.12,.47-.61,.76-1.46,.36-1.08,.7-1.83,1-2.26,.56-.84,1.28-1.31,2.16-1.42,.34-.04,.86,.02,1.56,.18,1.57,.37,2.72,1.16,3.44,2.34,1.23,2.02,1.9,4.78,2.1,8.24,.12,2.01,.24,4.02,.36,6.03Z"/><path class="cls-1" d="M162.79,43.95c-.56,.18-.85,.29-.89,.31-.25,.13-.48,.32-.66,.58-1.02,1.31-2.38,5.29-4.08,11.93,.89,.43,1.28,.87,1.17,1.28-.07,.26-.26,.53-.57,.8-.28,.04-.69,.1-1.22,.19-.27,1.14-.55,2.85-.84,5.11,0,.14,.02,.55,.07,1.25,.04,.56,.03,.94-.02,1.15-.08,.31-.26,.59-.55,.85-.28,.26-.56,.36-.84,.29-.62-.15-.93-.76-.94-1.86,0-.14,.1-.98,.26-2.54,.16-1.56,.29-2.56,.38-3.01,.1-.47,.23-.9,.4-1.31-1.59-.32-3.51-.46-5.73-.37-1.9,.09-3.79,.24-5.66,.47-.25,.22-.5,.43-.75,.65-.06,1.01-.14,2.03-.23,3.06-.03,1.57,.12,2.6,.44,3.08-.13,.33-.29,.49-.49,.48-.2-.02-.44,.02-.72,.12-.28,.1-.49,.14-.63,.13-.44-.03-.65-1.04-.65-3.02,.03-1.24,.07-2.48,.12-3.72-.08-.14-.16-.27-.24-.41-.05,0-.1,0-.15,0-.33-.02-.62-.13-.89-.35-.27-.21-.4-.48-.38-.8,0-.21,.14-.51,.39-.88,.25-.38,.49-.56,.73-.54,.05,0,.12,0,.21,.01,.09,0,.16,0,.21,.01,.07,0,.13-.02,.2-.03,.1-1.16,.26-3.49,.47-6.99,.29-4.64,.83-7.77,1.69-9.39,.39-.69,.97-1.01,1.74-.94,.49,.04,.96,.23,1.39,.55,.43,.32,.62,.7,.58,1.12-.02,.16-.19,.5-.53,1.03-.37,.63-.58,1-.62,1.1-1.07,2.47-1.78,6.29-2.22,11.45-.1,1.2,.07,1.81,.51,1.85,.13,.01,.83-.06,2.12-.18,2.89-.2,4.83-.13,5.77,.03,.24,.04,.65,.04,1.24,0,.59-.04,1.16,0,1.7,.11,.54,.11,.87-.2,1-.93,.22-1.15,.44-2.31,.66-3.46,.42-2.23,1-4.42,1.78-6.57,1.2-3.4,2.42-4.96,3.62-4.67,.61,.15,1.09,.56,1.43,1.22,.26,.59,.33,1.18,.21,1.75Z"/><path class="cls-1" d="M171.65,65.37c-.91,2.11-2.16,3.74-3.67,4.97-1.81,1.48-3.53,1.89-5.3,1.27-1.79-.63-2.88-1.85-3.33-3.73-.37-1.55-.26-3.44,.36-5.64,.62-2.18,1.7-4.19,3.33-5.99,2.04-2.2,4.14-2.95,6.15-2.24,.51,.18,1.15,.72,1.87,1.63,2.14,2.65,2.25,5.94,.59,9.74Zm-1.72-.77c.65-1.58,1.02-3.08,1.09-4.52,.07-2.01-.6-3.3-1.98-3.8-1.59-.58-3.19,0-4.71,1.73-1.17,1.34-2.01,2.91-2.56,4.69-.49,1.61-.69,3.02-.62,4.25,.14,1.69,.8,2.73,2.04,3.17,1.35,.48,2.68,.02,4.07-1.38,1.07-1.09,1.97-2.47,2.66-4.15Z"/><path class="cls-1" d="M184.85,82.27c-.62-.02-1.04-.11-1.26-.26-.14-.1-.28-.32-.44-.65,.24-.35,.66-.94,1.24-1.78,.53-.77,.95-1.36,1.24-1.78,4.72-6.74,6.32-10.66,4.77-11.69-.91-.6-2.41-.03-4.41,1.75-1.59,1.43-2.73,2.77-3.46,3.98-.69,1.14-1.38,2.28-2.07,3.42-.11,.18-.22,.47-.32,.86-.11,.39-.21,.66-.3,.82-.11,.18-.34,.29-.68,.34-.34,.04-.59,.02-.76-.08-.19-.11-.31-.38-.38-.8-.07-.42-.04-.74,.08-.95,1.34-2.32,2.67-4.65,4.01-6.97,.43-.74,.83-1.75,1.21-3.04,.48-1.63,.45-2.59-.05-2.87-.28-.15-.87-.05-1.77,.32-3.08,1.27-5.34,3.68-6.99,7.03-.2,.41-.45,1.03-.76,1.88-.31,.85-.56,1.46-.75,1.84-.36,.72-.8,.94-1.34,.68-.26-.13-.43-.35-.51-.69-.03-.16,.13-.75,.47-1.77,.29-.92,.51-1.54,.66-1.86,1.33-2.85,2.65-5.71,3.98-8.56,1.14-2.47,2.03-3.56,2.66-3.26,.26,.12,.47,.37,.63,.73,.16,.36,.18,.66,.06,.9-.25,.5-.65,1.12-1.2,1.86-.67,.98-1.07,1.6-1.23,1.85,.03,.09,.06,.18,.1,.27,.97-.8,1.96-1.59,2.96-2.37,1.35-.96,2.52-1.18,3.46-.66,1.33,.72,1.74,2.69,1.13,5.8,.4-.13,1.05-.52,1.94-1.17,.89-.64,1.61-1.05,2.13-1.23,.81-.25,1.57-.15,2.26,.31,.67,.44,1.14,1.33,1.39,2.68,.49,2.45-.68,5.51-3.36,9.17-1.45,1.99-2.9,3.97-4.35,5.96Z"/><path class="cls-1" d="M197.94,87.93c-.83,.83-2.12,1.01-3.86,.65-1.57-.31-2.77-.83-3.66-1.6-2.5-2.16-2.44-4.92,.31-8.54,1.22-1.58,2.82-3.07,4.84-4.39,2.65-1.71,4.68-1.99,5.96-.89,1.09,.94,1.85,2.49,2.2,4.59,.35,2.11,.02,3.61-.88,4.51-1.16,1.18-2.68,1.69-4.52,1.64-1.84-.05-3.36-.6-4.62-1.69-.12-.1-.29-.43-.52-.96-.23-.54-.42-.87-.56-.98-.27-.22-.47-.25-.6-.08-1.92,2.39-2.13,4.18-.68,5.43,.75,.65,1.66,1,2.75,1.07,.65,.06,1.5,0,2.55-.19,.82-.13,1.3-.13,1.41-.02,.44,.43,.4,.92-.13,1.44Zm3.07-7.27c.64-.68,1.03-1.51,1.15-2.51,.12-1-.19-1.83-.92-2.47-.89-.78-2.05-.9-3.46-.33-1.18,.47-2.14,1.19-2.9,2.12-.49,.6-.7,1.26-.65,1.98,.05,.72,.38,1.33,.97,1.85,.84,.73,1.83,1,3.01,.82,1.09-.16,2.02-.63,2.79-1.45Z"/></g><g><path class="cls-1" d="M119.83,153.94c-2.17,1.31-4.61,1.97-7.34,1.97-2.02,0-3.41-1.26-4.17-3.77-.54-1.76-.81-4.46-.81-8.1,0-2.32,.11-5.79,.34-10.41,.22-4.61,.34-8.06,.34-10.35,0-.49-.02-1.2-.07-2.14-.05-.94-.07-1.65-.07-2.14,0-.37,.01-.77,.04-1.18,.26-.49,.61-.73,1.06-.73,.82,0,1.24,1.54,1.24,4.61,0,2.66-.15,6.66-.46,11.98-.31,5.33-.46,9.32-.46,11.98,0,5.06,1.06,7.59,3.18,7.59,.71,0,1.7-.32,2.98-.96,1.28-.64,2.28-.96,2.98-.96,.38,0,.68,.27,.9,.82,.22,.54,.34,1.13,.34,1.77Z"/><path class="cls-1" d="M123.61,133.18c0,.68-.1,1.69-.3,3.04-.2,1.35-.3,2.36-.3,3.04v12.43c0,.83,.12,1.95,.35,3.38-.09,.3-.22,.45-.39,.45-1.15,0-1.73-.88-1.73-2.64v-20.64c.31-.26,.6-.39,.88-.39s.58,.13,.88,.39c.4,.26,.6,.58,.6,.96Zm.67-8.44c0,1.28-.38,1.91-1.13,1.91-.45,0-.86-.26-1.24-.79-.38-.52-.56-1.12-.56-1.8,0-1.27,.4-1.91,1.2-1.91,.47,0,.88,.24,1.22,.73,.34,.49,.51,1.11,.51,1.86Z"/><path class="cls-1" d="M136.18,132.79c.14,3.23-.28,7.67-1.27,13.33-1.06,6.3-2.18,9.45-3.35,9.45-1.41,0-2.71-2.38-3.88-7.14-.73-2.89-1.34-6.3-1.84-10.24-.24-1.84-.35-3.77-.35-5.79,0-.3,.1-.61,.3-.93,.2-.32,.39-.48,.58-.48,.28,0,.71,.38,1.27,1.12-.09,.64-.14,1.28-.14,1.91,0,2.29,.28,5.04,.85,8.27,.52,2.92,1.13,5.55,1.83,7.88,.4,1.28,.73,1.91,.99,1.91,.92,0,1.72-2.94,2.4-8.83,.52-4.58,.78-8.29,.78-11.14,0-.22,.11-.47,.33-.73,.22-.26,.42-.39,.58-.39,.59,0,.89,.6,.92,1.8Z"/><path class="cls-1" d="M141.05,133.18c0,.68-.1,1.69-.3,3.04-.2,1.35-.3,2.36-.3,3.04v12.43c0,.83,.12,1.95,.35,3.38-.09,.3-.22,.45-.39,.45-1.15,0-1.73-.88-1.73-2.64v-20.64c.31-.26,.6-.39,.88-.39s.58,.13,.88,.39c.4,.26,.6,.58,.6,.96Zm.67-8.44c0,1.28-.38,1.91-1.13,1.91-.45,0-.86-.26-1.24-.79-.38-.52-.57-1.12-.57-1.8,0-1.27,.4-1.91,1.2-1.91,.47,0,.88,.24,1.22,.73s.51,1.11,.51,1.86Z"/><path class="cls-1" d="M154.67,155.46c-.13,.41-.32,.62-.57,.62s-.64-.26-1.2-.79v-3.43c0-12.45-.97-18.68-2.92-18.68-.61,0-1.26,.71-1.97,2.14-1.78,3.53-2.67,7.97-2.67,13.33,0,.71,.06,1.75,.19,3.12,.13,1.37,.19,2.41,.19,3.12,0,.56-.24,.84-.72,.84-.91,0-1.37-1.18-1.37-3.54v-12.77c0-.34,.01-.82,.04-1.46,.02-.64,.04-1.12,.04-1.46,0-.49-.04-1.2-.12-2.14-.08-.94-.12-1.63-.12-2.08,0-.3,.15-.65,.44-1.04s.52-.59,.69-.59c.31,0,.59,.26,.85,.79-.07,2.44-.11,3.86-.11,4.27,0,.56,.01,1.11,.04,1.63,.21-.11,.5-.73,.85-1.86,.45-1.42,.82-2.4,1.13-2.92,.56-1.05,1.21-1.58,1.94-1.58,.28,0,.71,.17,1.27,.51,1.27,.75,2.18,1.99,2.72,3.71,.92,2.96,1.38,6.88,1.38,11.76v8.49Z"/><path class="cls-1" d="M167.35,138.3c0,.22-.01,.54-.04,.96-.49,3.75-.74,6.77-.74,9.06,0,1.16,.04,2.94,.11,5.34s.11,4.2,.11,5.4c0,2.33-.12,4.01-.35,5.06-.28,1.24-.82,2.27-1.62,3.09-.8,.83-1.62,1.24-2.47,1.24-.99,0-2.13-.34-3.42-1.01-1.65-.83-2.47-1.82-2.47-2.98,0-1.01,.25-1.52,.74-1.52,.21,0,.4,.22,.56,.67,.24,.64,.39,.99,.46,1.07,.19,.3,.67,.58,1.45,.84,.71,.3,1.24,.45,1.59,.45,1.32,0,2.32-.83,3-2.47,.59-1.39,.88-3.21,.88-5.46,0-2.4-.13-4.31-.39-5.74-1.13,2.36-2.48,3.54-4.06,3.54-.47,0-1.02-.25-1.66-.76-.64-.51-1.11-1.06-1.41-1.66-.64-1.2-.95-3.09-.95-5.68,0-3.19,.36-6.62,1.09-10.29,.94-4.76,2.18-7.14,3.71-7.14,1.22,0,2.52,1.76,3.88,5.29,.14,.41,.37,.96,.67,1.63,.31,.15,.75,.51,1.34,1.07Zm-2.12,3.09c0-.79-.18-1.44-.53-1.97-.07-1.58-.32-2.92-.74-4.05-.54-1.39-1.27-2.08-2.19-2.08-.64,0-1.27,1.14-1.91,3.43-.47,1.73-.79,3.34-.95,4.84-.24,2.25-.35,4.16-.35,5.74,0,4.61,.83,6.92,2.51,6.92,1.27,0,2.33-1.69,3.18-5.06,.66-2.74,.99-5.32,.99-7.76Z"/></g></svg>