<?xml version="1.0" encoding="UTF-8"?><svg id="Layer_1" xmlns="http://www.w3.org/2000/svg" viewBox="0 0 111.38 112.33"><defs><style>.cls-1{fill:#fffdfd;}</style></defs><g id="path1948"><path class="cls-1" d="M55.01,0c-4.6,0-9,.4-12.8,1.1-11.3,2-13.4,6.2-13.4,13.9v10.2h26.8v3.5H18.71c-7.8,0-14.6,4.7-16.8,13.6-2.5,10.2-2.6,16.6,0,27.2,1.9,7.9,6.5,13.6,14.2,13.6h9.2v-12.2c0-8.8,7.7-16.7,16.8-16.7h26.8c7.5,0,13.4-6.1,13.4-13.6V15c0-7.3-6.1-12.7-13.4-13.9-4.5-.8-9.3-1.1-13.9-1.1Zm-14.5,8.2c2.8,0,5,2.3,5,5.1s-2.3,5.1-5,5.1-5-2.3-5-5.1,2.3-5.1,5-5.1Z"/></g><g id="path1950"><path class="cls-1" d="M85.81,28.7v11.9c0,9.2-7.8,17-16.7,17h-26.8c-7.3,0-13.4,6.3-13.4,13.6v25.5c0,7.3,6.3,11.5,13.4,13.6,8.5,2.5,16.6,2.9,26.8,0,6.8-2,13.4-5.9,13.4-13.6v-10.2h-26.8v-3.4h40.2c7.8,0,10.7-5.4,13.4-13.6,2.8-8.4,2.7-16.5,0-27.2-2-7.8-5.7-13.6-13.5-13.6h-10Zm-15.1,64.6c2.8,0,5,2.3,5,5.1s-2.3,5.1-5,5.1-5-2.3-5-5.1,2.2-5.1,5-5.1Z"/></g></svg>